One of my favourite movies of all time, a definitive recommendation

Le orme aka Footprints on the Moon
Dual audio italian and English

Thanks to the original uploader, which I have on good authority, was also an astronaut.

TRAILER:

IMDB Link: http://www.imdb.com/title/tt0071950/combined

PLOT: A woman is tormented by strange dreams of astronauts on the moon. She visits a deserted seaside town whose inhabitants know her even though she does not know them


Directed by 

Luigi Bazzoni    
Mario Fanelli   (uncredited)  
  


Writing credits
(in alphabetical order)  
Luigi Bazzoni    
Mario Fanelli   novel "Las Huellas (as Mario Fenelli) 
Mario Fanelli   screenplay (as Mario Fenelli) 


 Cast (in credits order) 



 Florinda Bolkan ...  Alice Cespi 
 Peter McEnery ...  Henry 
 Nicoletta Elmi ...  Paola Bersel / Paula Burton 
 Caterina Boratto ...  Boutique Owner 
 John Karlsen ...  Alfredo Laurenti / Alfred Lowenthal (as John Carlsen) 
 Esmeralda Ruspoli   
 Ida Galli ...  Mary (as Evelyn Stewart) 
 Miriam Acevedo ...  Alice's Supervisor (as Myriam Acevedo) 
 Rosita Torosh ...  Marie Leblanche (as Rosita Toros) 
 Luigi Antonio Guerra  (as Luigi Guerra) 

 Klaus Kinski ...  Professor Blackmann 


Screencaps:  
http://imgur.com/lCkcS4n 
http://imgur.com/15r8Goa 
http://imgur.com/p6WpVBW 
http://imgur.com/1yIzsW0 
http://imgur.com/CfjiEED



TECHNICAL INFO:

Format                                   : Matroska
Format version                           : Version 2
File size                                : 1.50 GiB
Duration                                 : 1h 32mn
Overall bit rate                         : 2 323 Kbps
Encoded date                             : UTC 2010-07-08 16:04:11
Writing application                      : mkvmerge v3.3.0 ('Language') built on Mar 24 2010 14:59:24
Writing library                          : libebml v0.8.0 + libmatroska v0.9.0

Video
ID                                       : 1
Format                                   : AVC
Format/Info                              : Advanced Video Codec
Format profile                           : High@L3.0
Format settings, CABAC                   : Yes
Format settings, ReFrames                : 5 frames
Codec ID                                 : V_MPEG4/ISO/AVC
Duration                                 : 1h 32mn
Bit rate                                 : 1 936 Kbps
Width                                    : 704 pixels
Height                                   : 536 pixels
Display aspect ratio                     : 1.910
Frame rate mode                          : Constant
Frame rate                               : 25.000 fps
Color space                              : YUV
Chroma subsampling                       : 4:2:0
Bit depth                                : 8 bits
Scan type                                : Progressive
Bits/(Pixel*Frame)                       : 0.205
Stream size                              : 1.22 GiB (81%)
Writing library                          : x264 core 93 r1542 5b86182
Encoding settings                        : cabac=1 / ref=5 / deblock=1:-1:-1 / analyse=0x3:0x113 / me=umh / subme=9 / psy=1 / psy_rd=1.00:0.15 / mixed_ref=1 / me_range=16 / chroma_me=1 / trellis=1 / 8x8dct=1 / cqm=0 / deadzone=21,11 / fast_pskip=1 / chroma_qp_offset=-3 / threads=6 / sliced_threads=0 / nr=0 / decimate=1 / interlaced=0 / constrained_intra=0 / bframes=3 / b_pyramid=2 / b_adapt=2 / b_bias=0 / direct=3 / wpredb=1 / wpredp=2 / keyint=250 / keyint_min=25 / scenecut=40 / intra_refresh=0 / rc_lookahead=50 / rc=2pass / mbtree=1 / bitrate=1936 / ratetol=1.0 / qcomp=0.60 / qpmin=10 / qpmax=51 / qpstep=4 / cplxblur=20.0 / qblur=0.5 / ip_ratio=1.40 / aq=1:1.00
Default                                  : Yes
Forced                                   : No

Audio #1
ID                                       : 2
Format                                   : AC-3
Format/Info                              : Audio Coding 3
Mode extension                           : CM (complete main)
Format settings, Endianness              : Big
Codec ID                                 : A_AC3
Duration                                 : 1h 32mn
Bit rate mode                            : Constant
Bit rate                                 : 192 Kbps
Channel(s)                               : 2 channels
Channel positions                        : Front: L R
Sampling rate                            : 48.0 KHz
Bit depth                                : 16 bits
Compression mode                         : Lossy
Stream size                              : 127 MiB (8%)
Title                                    : English
Language                                 : English
Default                                  : Yes
Forced                                   : No

Audio #2
ID                                       : 3
Format                                   : AC-3
Format/Info                              : Audio Coding 3
Mode extension                           : CM (complete main)
Format settings, Endianness              : Big
Codec ID                                 : A_AC3
Duration                                 : 1h 32mn
Bit rate mode                            : Constant
Bit rate                                 : 192 Kbps
Channel(s)                               : 2 channels
Channel positions                        : Front: L R
Sampling rate                            : 48.0 KHz
Bit depth                                : 16 bits
Compression mode                         : Lossy
Stream size                              : 127 MiB (8%)
Title                                    : Italian
Language                                 : Italian
Default                                  : No
Forced                                   : No



*****************************FREAKYFLICKS*****************************

 FreakyFlicks is a free and open community dedicated to preserving and
 sharing cinematic art in the digital era. Our goal is to disseminate
 such works of art to the widest audience possible through the channels
 provided by P2P technology.

 The FreakyFlicks collection is limited to those films that have played
 an exceptional role in the history of cinema and its progression in
 becoming a great art. Films that are usually described as classic,
 cult, arthouse and avant-garde.

 If you have films that fit this description feel free to share them
 and participate in our community. All you need do is include this tag
 in your upload and join us at the forum to announce your release.


   https://board.freakyflicks.es


 *****************************FREAKYFLICKS***************************** 
